<svg width="241" height="241" viewBox="0 0 241 241" fill="none" xmlns="http://www.w3.org/2000/svg">
<g clip-path="url(#clip0_18_477)">
<path d="M160.732 67.8493C163.489 61.0525 160.214 53.3077 153.418 50.55C146.62 47.792 138.874 51.067 136.117 57.8648L122.314 91.8924C124.455 80.5902 126.282 69.6913 127.079 61.8662C128.205 54.7132 124.807 47.7539 116.725 45.7672C109.292 44.2045 102.243 49.5636 101.134 57.0451C99.1843 70.1982 95.7633 89.7203 91.2827 105.948C87.0279 100.341 83.9472 92.0134 80.8382 84.6367C76.4393 75.498 68.5146 73.0491 61.4577 76.5076C55.0144 79.6653 52.071 87.2378 54.6904 93.9181L60.8969 109.747C61.8165 112.702 63.6902 119.491 65.231 128.169C66.3828 134.657 66.616 138.704 66.8592 142.925C67.0595 146.402 67.2666 149.997 67.9994 155.171C69.049 162.581 71.3207 168.153 73.0688 171.742L73.1292 171.733C77.0009 180.022 83.3655 187.249 91.8902 192.171C107.084 200.943 125.186 200.112 139.17 191.561C151.628 184.198 159.141 173.498 165.968 163.774C167.628 161.411 169.247 159.105 170.886 156.919C176.2 149.067 180.779 143.806 183.615 140.713L195.69 128.109C200.765 122.812 200.585 114.405 195.288 109.33C189.991 104.256 181.584 104.436 176.509 109.733L166.016 120.686L182.108 97.3676C186.274 91.3305 184.757 83.0591 178.72 78.8929C172.683 74.7267 164.411 76.2433 160.245 82.2804L147.225 101.148L160.732 67.8493Z" fill="#FCC5B2"/>
<path d="M160.732 67.8493C163.489 61.0525 160.214 53.3077 153.418 50.55C146.62 47.792 138.874 51.067 136.117 57.8648L122.314 91.8924C124.455 80.5902 126.282 69.6913 127.079 61.8662C128.205 54.7132 124.807 47.7539 116.725 45.7672C109.292 44.2045 102.243 49.5636 101.134 57.0451C99.1843 70.1982 95.7633 89.7203 91.2827 105.948C87.0279 100.341 83.9472 92.0134 80.8382 84.6367C76.4393 75.498 68.5146 73.0491 61.4577 76.5076C55.0144 79.6653 52.071 87.2378 54.6904 93.9181L60.8969 109.747C61.8165 112.702 63.6902 119.491 65.231 128.169C66.3828 134.657 66.616 138.704 66.8592 142.925C67.0595 146.402 67.2666 149.997 67.9994 155.171C69.049 162.581 71.3207 168.153 73.0688 171.742L73.1292 171.733C77.0009 180.022 83.3655 187.249 91.8902 192.171C107.084 200.943 125.186 200.112 139.17 191.561C151.628 184.198 159.141 173.498 165.968 163.774C167.628 161.411 169.247 159.105 170.886 156.919C176.2 149.067 180.779 143.806 183.615 140.713L195.69 128.109C200.765 122.812 200.585 114.405 195.288 109.33C189.991 104.256 181.584 104.436 176.509 109.733L166.016 120.686L182.108 97.3676C186.274 91.3305 184.757 83.0591 178.72 78.8929C172.683 74.7267 164.411 76.2433 160.245 82.2804L147.225 101.148L160.732 67.8493Z" fill="url(#paint0_radial_18_477)"/>
<path d="M160.732 67.8493C163.489 61.0525 160.214 53.3077 153.418 50.55C146.62 47.792 138.874 51.067 136.117 57.8648L122.314 91.8924C124.455 80.5902 126.282 69.6913 127.079 61.8662C128.205 54.7132 124.807 47.7539 116.725 45.7672C109.292 44.2045 102.243 49.5636 101.134 57.0451C99.1843 70.1982 95.7633 89.7203 91.2827 105.948C87.0279 100.341 83.9472 92.0134 80.8382 84.6367C76.4393 75.498 68.5146 73.0491 61.4577 76.5076C55.0144 79.6653 52.071 87.2378 54.6904 93.9181L60.8969 109.747C61.8165 112.702 63.6902 119.491 65.231 128.169C66.3828 134.657 66.616 138.704 66.8592 142.925C67.0595 146.402 67.2666 149.997 67.9994 155.171C69.049 162.581 71.3207 168.153 73.0688 171.742L73.1292 171.733C77.0009 180.022 83.3655 187.249 91.8902 192.171C107.084 200.943 125.186 200.112 139.17 191.561C151.628 184.198 159.141 173.498 165.968 163.774C167.628 161.411 169.247 159.105 170.886 156.919C176.2 149.067 180.779 143.806 183.615 140.713L195.69 128.109C200.765 122.812 200.585 114.405 195.288 109.33C189.991 104.256 181.584 104.436 176.509 109.733L166.016 120.686L182.108 97.3676C186.274 91.3305 184.757 83.0591 178.72 78.8929C172.683 74.7267 164.411 76.2433 160.245 82.2804L147.225 101.148L160.732 67.8493Z" fill="url(#paint1_radial_18_477)"/>
<path d="M160.732 67.8493C163.489 61.0525 160.214 53.3077 153.418 50.55C146.62 47.792 138.874 51.067 136.117 57.8648L122.314 91.8924C124.455 80.5902 126.282 69.6913 127.079 61.8662C128.205 54.7132 124.807 47.7539 116.725 45.7672C109.292 44.2045 102.243 49.5636 101.134 57.0451C99.1843 70.1982 95.7633 89.7203 91.2827 105.948C87.0279 100.341 83.9472 92.0134 80.8382 84.6367C76.4393 75.498 68.5146 73.0491 61.4577 76.5076C55.0144 79.6653 52.071 87.2378 54.6904 93.9181L60.8969 109.747C61.8165 112.702 63.6902 119.491 65.231 128.169C66.3828 134.657 66.616 138.704 66.8592 142.925C67.0595 146.402 67.2666 149.997 67.9994 155.171C69.049 162.581 71.3207 168.153 73.0688 171.742L73.1292 171.733C77.0009 180.022 83.3655 187.249 91.8902 192.171C107.084 200.943 125.186 200.112 139.17 191.561C151.628 184.198 159.141 173.498 165.968 163.774C167.628 161.411 169.247 159.105 170.886 156.919C176.2 149.067 180.779 143.806 183.615 140.713L195.69 128.109C200.765 122.812 200.585 114.405 195.288 109.33C189.991 104.256 181.584 104.436 176.509 109.733L166.016 120.686L182.108 97.3676C186.274 91.3305 184.757 83.0591 178.72 78.8929C172.683 74.7267 164.411 76.2433 160.245 82.2804L147.225 101.148L160.732 67.8493Z" fill="url(#paint2_radial_18_477)"/>
<path d="M160.732 67.8493C163.489 61.0525 160.214 53.3077 153.418 50.55C146.62 47.792 138.874 51.067 136.117 57.8648L122.314 91.8924C124.455 80.5902 126.282 69.6913 127.079 61.8662C128.205 54.7132 124.807 47.7539 116.725 45.7672C109.292 44.2045 102.243 49.5636 101.134 57.0451C99.1843 70.1982 95.7633 89.7203 91.2827 105.948C87.0279 100.341 83.9472 92.0134 80.8382 84.6367C76.4393 75.498 68.5146 73.0491 61.4577 76.5076C55.0144 79.6653 52.071 87.2378 54.6904 93.9181L60.8969 109.747C61.8165 112.702 63.6902 119.491 65.231 128.169C66.3828 134.657 66.616 138.704 66.8592 142.925C67.0595 146.402 67.2666 149.997 67.9994 155.171C69.049 162.581 71.3207 168.153 73.0688 171.742L73.1292 171.733C77.0009 180.022 83.3655 187.249 91.8902 192.171C107.084 200.943 125.186 200.112 139.17 191.561C151.628 184.198 159.141 173.498 165.968 163.774C167.628 161.411 169.247 159.105 170.886 156.919C176.2 149.067 180.779 143.806 183.615 140.713L195.69 128.109C200.765 122.812 200.585 114.405 195.288 109.33C189.991 104.256 181.584 104.436 176.509 109.733L166.016 120.686L182.108 97.3676C186.274 91.3305 184.757 83.0591 178.72 78.8929C172.683 74.7267 164.411 76.2433 160.245 82.2804L147.225 101.148L160.732 67.8493Z" fill="url(#paint3_radial_18_477)"/>
<path d="M170.309 157.694C170.501 157.434 170.694 157.176 170.886 156.919C176.2 149.067 180.779 143.806 183.614 140.713L195.69 128.109C200.765 122.812 200.584 114.405 195.288 109.33C189.991 104.256 181.584 104.436 176.509 109.733L166.027 120.674L152.755 134.097C146.249 142.438 155.648 158.469 170.309 157.694Z" fill="url(#paint4_linear_18_477)"/>
<path d="M170.309 157.694C170.501 157.434 170.694 157.176 170.886 156.919C176.2 149.067 180.779 143.806 183.614 140.713L195.69 128.109C200.765 122.812 200.584 114.405 195.288 109.33C189.991 104.256 181.584 104.436 176.509 109.733L166.027 120.674L152.755 134.097C146.249 142.438 155.648 158.469 170.309 157.694Z" fill="url(#paint5_radial_18_477)"/>
<path d="M170.309 157.694C170.501 157.434 170.694 157.176 170.886 156.919C176.2 149.067 180.779 143.806 183.614 140.713L195.69 128.109C200.765 122.812 200.584 114.405 195.288 109.33C189.991 104.256 181.584 104.436 176.509 109.733L166.027 120.674L152.755 134.097C146.249 142.438 155.648 158.469 170.309 157.694Z" fill="url(#paint6_linear_18_477)"/>
<path d="M170.309 157.694C170.501 157.434 170.694 157.176 170.886 156.919C176.2 149.067 180.779 143.806 183.614 140.713L195.69 128.109C200.765 122.812 200.584 114.405 195.288 109.33C189.991 104.256 181.584 104.436 176.509 109.733L166.027 120.674L152.755 134.097C146.249 142.438 155.648 158.469 170.309 157.694Z" fill="url(#paint7_radial_18_477)"/>
<g filter="url(#filter0_f_18_477)">
<path d="M185.83 115.29L158.182 143.585" stroke="#FFDAC3" stroke-width="7.7" stroke-linecap="round"/>
</g>
<path d="M134.555 119.471C132.45 123.118 131.537 129.339 137.336 134.076C143.497 139.109 151.238 135.363 153.613 133.427L166.147 120.569L182.108 97.3681C186.274 91.331 184.757 83.0597 178.72 78.8935C172.683 74.7273 164.411 76.2438 160.245 82.281L134.555 119.471Z" fill="url(#paint8_linear_18_477)"/>
<path d="M134.555 119.471C132.45 123.118 131.537 129.339 137.336 134.076C143.497 139.109 151.238 135.363 153.613 133.427L166.147 120.569L182.108 97.3681C186.274 91.331 184.757 83.0597 178.72 78.8935C172.683 74.7273 164.411 76.2438 160.245 82.281L134.555 119.471Z" fill="url(#paint9_linear_18_477)"/>
<path d="M134.555 119.471C132.45 123.118 131.537 129.339 137.336 134.076C143.497 139.109 151.238 135.363 153.613 133.427L166.147 120.569L182.108 97.3681C186.274 91.331 184.757 83.0597 178.72 78.8935C172.683 74.7273 164.411 76.2438 160.245 82.281L134.555 119.471Z" fill="url(#paint10_radial_18_477)"/>
<path d="M134.555 119.471C132.45 123.118 131.537 129.339 137.336 134.076C143.497 139.109 151.238 135.363 153.613 133.427L166.147 120.569L182.108 97.3681C186.274 91.331 184.757 83.0597 178.72 78.8935C172.683 74.7273 164.411 76.2438 160.245 82.281L134.555 119.471Z" fill="url(#paint11_linear_18_477)"/>
<path d="M134.555 119.471C132.45 123.118 131.537 129.339 137.336 134.076C143.497 139.109 151.238 135.363 153.613 133.427L166.147 120.569L182.108 97.3681C186.274 91.331 184.757 83.0597 178.72 78.8935C172.683 74.7273 164.411 76.2438 160.245 82.281L134.555 119.471Z" fill="url(#paint12_radial_18_477)"/>
<g filter="url(#filter1_f_18_477)">
<path d="M169.695 86.9678L147.755 117.283" stroke="#FFDAC2" stroke-width="8.25" stroke-linecap="round"/>
</g>
<path d="M135.346 118.326C133.079 118.839 130.442 118.9 127.472 118.16C118.52 115.928 118.459 106.357 120.128 101.317L122.314 91.8921L136.117 57.8645C138.874 51.0668 146.62 47.7917 153.417 50.5497C160.214 53.3074 163.488 61.0522 160.731 67.849L147.243 101.103L135.346 118.326Z" fill="url(#paint13_linear_18_477)"/>
<path d="M135.346 118.326C133.079 118.839 130.442 118.9 127.472 118.16C118.52 115.928 118.459 106.357 120.128 101.317L122.314 91.8921L136.117 57.8645C138.874 51.0668 146.62 47.7917 153.417 50.5497C160.214 53.3074 163.488 61.0522 160.731 67.849L147.243 101.103L135.346 118.326Z" fill="url(#paint14_linear_18_477)"/>
<path d="M135.346 118.326C133.079 118.839 130.442 118.9 127.472 118.16C118.52 115.928 118.459 106.357 120.128 101.317L122.314 91.8921L136.117 57.8645C138.874 51.0668 146.62 47.7917 153.417 50.5497C160.214 53.3074 163.488 61.0522 160.731 67.849L147.243 101.103L135.346 118.326Z" fill="url(#paint15_radial_18_477)"/>
<path d="M135.346 118.326C133.079 118.839 130.442 118.9 127.472 118.16C118.52 115.928 118.459 106.357 120.128 101.317L122.314 91.8921L136.117 57.8645C138.874 51.0668 146.62 47.7917 153.417 50.5497C160.214 53.3074 163.488 61.0522 160.731 67.849L147.243 101.103L135.346 118.326Z" fill="url(#paint16_radial_18_477)"/>
<path d="M135.346 118.326C133.079 118.839 130.442 118.9 127.472 118.16C118.52 115.928 118.459 106.357 120.128 101.317L122.314 91.8921L136.117 57.8645C138.874 51.0668 146.62 47.7917 153.417 50.5497C160.214 53.3074 163.488 61.0522 160.731 67.849L147.243 101.103L135.346 118.326Z" fill="url(#paint17_radial_18_477)"/>
<path d="M135.346 118.326C133.079 118.839 130.442 118.9 127.472 118.16C118.52 115.928 118.459 106.357 120.128 101.317L122.314 91.8921L136.117 57.8645C138.874 51.0668 146.62 47.7917 153.417 50.5497C160.214 53.3074 163.488 61.0522 160.731 67.849L147.243 101.103L135.346 118.326Z" fill="url(#paint18_linear_18_477)"/>
<g filter="url(#filter2_f_18_477)">
<path d="M146.428 60.9503L126.198 106.13" stroke="url(#paint19_linear_18_477)" stroke-width="8.25" stroke-linecap="round"/>
</g>
<path d="M91.2531 105.91C91.2626 105.923 91.2721 105.935 91.2816 105.948C91.2818 105.948 91.2813 105.948 91.2816 105.948C91.8417 103.919 92.3859 101.84 92.9121 99.7278C96.5952 84.9397 99.4276 68.5544 101.133 57.0455C101.272 56.1103 101.503 55.2083 101.817 54.3488C104.011 48.3324 110.221 44.4002 116.725 45.7675C124.807 47.7542 128.205 54.7136 127.078 61.8666C126.698 65.5959 126.085 70.0233 125.315 74.8599C124.469 80.1717 123.434 85.977 122.314 91.8928L122.382 91.725L122.319 91.9529L119.583 103.273C118.726 106.778 115.753 114.271 106.385 114.702C97.0168 115.133 91.2216 109.747 91.2546 105.966L91.2531 105.91Z" fill="url(#paint20_linear_18_477)"/>
<path d="M91.2531 105.91C91.2626 105.923 91.2721 105.935 91.2816 105.948C91.2818 105.948 91.2813 105.948 91.2816 105.948C91.8417 103.919 92.3859 101.84 92.9121 99.7278C96.5952 84.9397 99.4276 68.5544 101.133 57.0455C101.272 56.1103 101.503 55.2083 101.817 54.3488C104.011 48.3324 110.221 44.4002 116.725 45.7675C124.807 47.7542 128.205 54.7136 127.078 61.8666C126.698 65.5959 126.085 70.0233 125.315 74.8599C124.469 80.1717 123.434 85.977 122.314 91.8928L122.382 91.725L122.319 91.9529L119.583 103.273C118.726 106.778 115.753 114.271 106.385 114.702C97.0168 115.133 91.2216 109.747 91.2546 105.966L91.2531 105.91Z" fill="url(#paint21_linear_18_477)"/>
<path d="M91.2531 105.91C91.2626 105.923 91.2721 105.935 91.2816 105.948C91.2818 105.948 91.2813 105.948 91.2816 105.948C91.8417 103.919 92.3859 101.84 92.9121 99.7278C96.5952 84.9397 99.4276 68.5544 101.133 57.0455C101.272 56.1103 101.503 55.2083 101.817 54.3488C104.011 48.3324 110.221 44.4002 116.725 45.7675C124.807 47.7542 128.205 54.7136 127.078 61.8666C126.698 65.5959 126.085 70.0233 125.315 74.8599C124.469 80.1717 123.434 85.977 122.314 91.8928L122.382 91.725L122.319 91.9529L119.583 103.273C118.726 106.778 115.753 114.271 106.385 114.702C97.0168 115.133 91.2216 109.747 91.2546 105.966L91.2531 105.91Z" fill="url(#paint22_radial_18_477)"/>
<g filter="url(#filter3_f_18_477)">
<path d="M96.4409 109.175C98.1914 102.247 103.9 80.0998 108.167 56.2078" stroke="url(#paint23_linear_18_477)" stroke-width="4.125" stroke-linecap="round"/>
</g>
<g filter="url(#filter4_f_18_477)">
<path d="M64.5323 84.0049C68.5341 91.7401 76.7404 111.535 77.5502 128.832" stroke="url(#paint24_linear_18_477)" stroke-width="5.5" stroke-linecap="round"/>
</g>
<path d="M160.732 67.8493C163.489 61.0525 160.214 53.3077 153.418 50.55C146.62 47.792 138.874 51.067 136.117 57.8648L122.314 91.8924C124.455 80.5902 126.282 69.6913 127.079 61.8662C128.205 54.7132 124.807 47.7539 116.725 45.7672C109.292 44.2045 102.243 49.5636 101.134 57.0451C99.1843 70.1982 95.7633 89.7203 91.2827 105.948C87.0279 100.341 83.9472 92.0134 80.8382 84.6367C76.4393 75.498 68.5146 73.0491 61.4577 76.5076C55.0144 79.6653 52.071 87.2378 54.6904 93.9181L60.8969 109.747C61.8165 112.702 63.6902 119.491 65.231 128.169C66.3828 134.657 66.616 138.704 66.8592 142.925C67.0595 146.402 67.2666 149.997 67.9994 155.171C69.049 162.581 71.3207 168.153 73.0688 171.742L73.1292 171.733C77.0009 180.022 83.3655 187.249 91.8902 192.171C107.084 200.943 125.186 200.112 139.17 191.561C151.628 184.198 159.141 173.498 165.968 163.774C167.628 161.411 169.247 159.105 170.886 156.919C176.2 149.067 180.779 143.806 183.615 140.713L195.69 128.109C200.765 122.812 200.585 114.405 195.288 109.33C189.991 104.256 181.584 104.436 176.509 109.733L166.016 120.686L182.108 97.3676C186.274 91.3305 184.757 83.0591 178.72 78.8929C172.683 74.7267 164.411 76.2433 160.245 82.2804L147.225 101.148L160.732 67.8493Z" fill="url(#paint25_radial_18_477)"/>
<path d="M160.732 67.8493C163.489 61.0525 160.214 53.3077 153.418 50.55C146.62 47.792 138.874 51.067 136.117 57.8648L122.314 91.8924C124.455 80.5902 126.282 69.6913 127.079 61.8662C128.205 54.7132 124.807 47.7539 116.725 45.7672C109.292 44.2045 102.243 49.5636 101.134 57.0451C99.1843 70.1982 95.7633 89.7203 91.2827 105.948C87.0279 100.341 83.9472 92.0134 80.8382 84.6367C76.4393 75.498 68.5146 73.0491 61.4577 76.5076C55.0144 79.6653 52.071 87.2378 54.6904 93.9181L60.8969 109.747C61.8165 112.702 63.6902 119.491 65.231 128.169C66.3828 134.657 66.616 138.704 66.8592 142.925C67.0595 146.402 67.2666 149.997 67.9994 155.171C69.049 162.581 71.3207 168.153 73.0688 171.742L73.1292 171.733C77.0009 180.022 83.3655 187.249 91.8902 192.171C107.084 200.943 125.186 200.112 139.17 191.561C151.628 184.198 159.141 173.498 165.968 163.774C167.628 161.411 169.247 159.105 170.886 156.919C176.2 149.067 180.779 143.806 183.615 140.713L195.69 128.109C200.765 122.812 200.585 114.405 195.288 109.33C189.991 104.256 181.584 104.436 176.509 109.733L166.016 120.686L182.108 97.3676C186.274 91.3305 184.757 83.0591 178.72 78.8929C172.683 74.7267 164.411 76.2433 160.245 82.2804L147.225 101.148L160.732 67.8493Z" fill="url(#paint26_radial_18_477)"/>
<path d="M160.732 67.8493C163.489 61.0525 160.214 53.3077 153.418 50.55C146.62 47.792 138.874 51.067 136.117 57.8648L122.314 91.8924C124.455 80.5902 126.282 69.6913 127.079 61.8662C128.205 54.7132 124.807 47.7539 116.725 45.7672C109.292 44.2045 102.243 49.5636 101.134 57.0451C99.1843 70.1982 95.7633 89.7203 91.2827 105.948C87.0279 100.341 83.9472 92.0134 80.8382 84.6367C76.4393 75.498 68.5146 73.0491 61.4577 76.5076C55.0144 79.6653 52.071 87.2378 54.6904 93.9181L60.8969 109.747C61.8165 112.702 63.6902 119.491 65.231 128.169C66.3828 134.657 66.616 138.704 66.8592 142.925C67.0595 146.402 67.2666 149.997 67.9994 155.171C69.049 162.581 71.3207 168.153 73.0688 171.742L73.1292 171.733C77.0009 180.022 83.3655 187.249 91.8902 192.171C107.084 200.943 125.186 200.112 139.17 191.561C151.628 184.198 159.141 173.498 165.968 163.774C167.628 161.411 169.247 159.105 170.886 156.919C176.2 149.067 180.779 143.806 183.615 140.713L195.69 128.109C200.765 122.812 200.585 114.405 195.288 109.33C189.991 104.256 181.584 104.436 176.509 109.733L166.016 120.686L182.108 97.3676C186.274 91.3305 184.757 83.0591 178.72 78.8929C172.683 74.7267 164.411 76.2433 160.245 82.2804L147.225 101.148L160.732 67.8493Z" fill="url(#paint27_radial_18_477)"/>
<path d="M160.732 67.8493C163.489 61.0525 160.214 53.3077 153.418 50.55C146.62 47.792 138.874 51.067 136.117 57.8648L122.314 91.8924C124.455 80.5902 126.282 69.6913 127.079 61.8662C128.205 54.7132 124.807 47.7539 116.725 45.7672C109.292 44.2045 102.243 49.5636 101.134 57.0451C99.1843 70.1982 95.7633 89.7203 91.2827 105.948C87.0279 100.341 83.9472 92.0134 80.8382 84.6367C76.4393 75.498 68.5146 73.0491 61.4577 76.5076C55.0144 79.6653 52.071 87.2378 54.6904 93.9181L60.8969 109.747C61.8165 112.702 63.6902 119.491 65.231 128.169C66.3828 134.657 66.616 138.704 66.8592 142.925C67.0595 146.402 67.2666 149.997 67.9994 155.171C69.049 162.581 71.3207 168.153 73.0688 171.742L73.1292 171.733C77.0009 180.022 83.3655 187.249 91.8902 192.171C107.084 200.943 125.186 200.112 139.17 191.561C151.628 184.198 159.141 173.498 165.968 163.774C167.628 161.411 169.247 159.105 170.886 156.919C176.2 149.067 180.779 143.806 183.615 140.713L195.69 128.109C200.765 122.812 200.585 114.405 195.288 109.33C189.991 104.256 181.584 104.436 176.509 109.733L166.016 120.686L182.108 97.3676C186.274 91.3305 184.757 83.0591 178.72 78.8929C172.683 74.7267 164.411 76.2433 160.245 82.2804L147.225 101.148L160.732 67.8493Z" fill="url(#paint28_radial_18_477)"/>
<path d="M160.732 67.8493C163.489 61.0525 160.214 53.3077 153.418 50.55C146.62 47.792 138.874 51.067 136.117 57.8648L122.314 91.8924C124.455 80.5902 126.282 69.6913 127.079 61.8662C128.205 54.7132 124.807 47.7539 116.725 45.7672C109.292 44.2045 102.243 49.5636 101.134 57.0451C99.1843 70.1982 95.7633 89.7203 91.2827 105.948C87.0279 100.341 83.9472 92.0134 80.8382 84.6367C76.4393 75.498 68.5146 73.0491 61.4577 76.5076C55.0144 79.6653 52.071 87.2378 54.6904 93.9181L60.8969 109.747C61.8165 112.702 63.6902 119.491 65.231 128.169C66.3828 134.657 66.616 138.704 66.8592 142.925C67.0595 146.402 67.2666 149.997 67.9994 155.171C69.049 162.581 71.3207 168.153 73.0688 171.742L73.1292 171.733C77.0009 180.022 83.3655 187.249 91.8902 192.171C107.084 200.943 125.186 200.112 139.17 191.561C151.628 184.198 159.141 173.498 165.968 163.774C167.628 161.411 169.247 159.105 170.886 156.919C176.2 149.067 180.779 143.806 183.615 140.713L195.69 128.109C200.765 122.812 200.585 114.405 195.288 109.33C189.991 104.256 181.584 104.436 176.509 109.733L166.016 120.686L182.108 97.3676C186.274 91.3305 184.757 83.0591 178.72 78.8929C172.683 74.7267 164.411 76.2433 160.245 82.2804L147.225 101.148L160.732 67.8493Z" fill="url(#paint29_radial_18_477)"/>
<g filter="url(#filter5_f_18_477)">
<path d="M158.125 151.59C155.555 146.931 154.071 142.799 154.846 136.3" stroke="url(#paint30_linear_18_477)" stroke-width="2.75" stroke-linecap="round"/>
</g>
<g filter="url(#filter6_f_18_477)">
<path d="M148.823 128.514C144.811 125.02 141.998 121.649 140.494 115.28" stroke="url(#paint31_linear_18_477)" stroke-width="2.75" stroke-linecap="round"/>
</g>
<g filter="url(#filter7_f_18_477)">
<path d="M133.627 111.985C129.255 113.55 122.742 112.909 119.31 108.762" stroke="url(#paint32_linear_18_477)" stroke-width="2.75" stroke-linecap="round"/>
</g>
<g filter="url(#filter8_f_18_477)">
<path d="M107.472 112.94C103.1 114.505 96.5871 113.864 93.1553 109.717" stroke="url(#paint33_linear_18_477)" stroke-width="2.75" stroke-linecap="round"/>
</g>
</g>
<defs>
<filter id="filter0_f_18_477" x="144.982" y="102.09" width="54.0484" height="54.6946" filterUnits="userSpaceOnUse" color-interpolation-filters="sRGB">
<feFlood flood-opacity="0" result="BackgroundImageFix"/>
<feBlend mode="normal" in="SourceGraphic" in2="BackgroundImageFix" result="shape"/>
<feGaussianBlur stdDeviation="4.675" result="effect1_foregroundBlur_18_477"/>
</filter>
<filter id="filter1_f_18_477" x="132.63" y="71.8425" width="52.1909" height="60.566" filterUnits="userSpaceOnUse" color-interpolation-filters="sRGB">
<feFlood flood-opacity="0" result="BackgroundImageFix"/>
<feBlend mode="normal" in="SourceGraphic" in2="BackgroundImageFix" result="shape"/>
<feGaussianBlur stdDeviation="5.5" result="effect1_foregroundBlur_18_477"/>
</filter>
<filter id="filter2_f_18_477" x="111.072" y="45.8243" width="50.4821" height="75.4321" filterUnits="userSpaceOnUse" color-interpolation-filters="sRGB">
<feFlood flood-opacity="0" result="BackgroundImageFix"/>
<feBlend mode="normal" in="SourceGraphic" in2="BackgroundImageFix" result="shape"/>
<feGaussianBlur stdDeviation="5.5" result="effect1_foregroundBlur_18_477"/>
</filter>
<filter id="filter3_f_18_477" x="87.5029" y="47.2699" width="29.6025" height="70.8431" filterUnits="userSpaceOnUse" color-interpolation-filters="sRGB">
<feFlood flood-opacity="0" result="BackgroundImageFix"/>
<feBlend mode="normal" in="SourceGraphic" in2="BackgroundImageFix" result="shape"/>
<feGaussianBlur stdDeviation="3.4375" result="effect1_foregroundBlur_18_477"/>
</filter>
<filter id="filter4_f_18_477" x="53.5317" y="73.0043" width="35.0186" height="66.8279" filterUnits="userSpaceOnUse" color-interpolation-filters="sRGB">
<feFlood flood-opacity="0" result="BackgroundImageFix"/>
<feBlend mode="normal" in="SourceGraphic" in2="BackgroundImageFix" result="shape"/>
<feGaussianBlur stdDeviation="4.125" result="effect1_foregroundBlur_18_477"/>
</filter>
<filter id="filter5_f_18_477" x="150.515" y="132.175" width="11.7348" height="23.5398" filterUnits="userSpaceOnUse" color-interpolation-filters="sRGB">
<feFlood flood-opacity="0" result="BackgroundImageFix"/>
<feBlend mode="normal" in="SourceGraphic" in2="BackgroundImageFix" result="shape"/>
<feGaussianBlur stdDeviation="1.375" result="effect1_foregroundBlur_18_477"/>
</filter>
<filter id="filter6_f_18_477" x="136.369" y="111.154" width="16.5793" height="21.4846" filterUnits="userSpaceOnUse" color-interpolation-filters="sRGB">
<feFlood flood-opacity="0" result="BackgroundImageFix"/>
<feBlend mode="normal" in="SourceGraphic" in2="BackgroundImageFix" result="shape"/>
<feGaussianBlur stdDeviation="1.375" result="effect1_foregroundBlur_18_477"/>
</filter>
<filter id="filter7_f_18_477" x="115.185" y="104.637" width="22.5675" height="12.2552" filterUnits="userSpaceOnUse" color-interpolation-filters="sRGB">
<feFlood flood-opacity="0" result="BackgroundImageFix"/>
<feBlend mode="normal" in="SourceGraphic" in2="BackgroundImageFix" result="shape"/>
<feGaussianBlur stdDeviation="1.375" result="effect1_foregroundBlur_18_477"/>
</filter>
<filter id="filter8_f_18_477" x="89.0303" y="105.592" width="22.5675" height="12.2552" filterUnits="userSpaceOnUse" color-interpolation-filters="sRGB">
<feFlood flood-opacity="0" result="BackgroundImageFix"/>
<feBlend mode="normal" in="SourceGraphic" in2="BackgroundImageFix" result="shape"/>
<feGaussianBlur stdDeviation="1.375" result="effect1_foregroundBlur_18_477"/>
</filter>
<radialGradient id="paint0_radial_18_477" cx="0" cy="0" r="1" gradientUnits="userSpaceOnUse" gradientTransform="translate(90.3874 98.7576) rotate(40.7131) scale(100.77 281.667)">
<stop offset="0.852994" stop-color="#DDA492" stop-opacity="0"/>
<stop offset="1" stop-color="#DDA492"/>
</radialGradient>
<radialGradient id="paint1_radial_18_477" cx="0" cy="0" r="1" gradientUnits="userSpaceOnUse" gradientTransform="translate(80.9554 146.034) rotate(68.7805) scale(23.5995 39.0972)">
<stop stop-color="#FEC8B7"/>
<stop offset="1" stop-color="#FEC8B7" stop-opacity="0"/>
</radialGradient>
<radialGradient id="paint2_radial_18_477" cx="0" cy="0" r="1" gradientUnits="userSpaceOnUse" gradientTransform="translate(152.816 45.4389) rotate(111.326) scale(170.534 114.43)">
<stop offset="0.778009" stop-color="#BA7D97" stop-opacity="0"/>
<stop offset="1" stop-color="#BA7D97"/>
</radialGradient>
<radialGradient id="paint3_radial_18_477" cx="0" cy="0" r="1" gradientUnits="userSpaceOnUse" gradientTransform="translate(152.816 45.439) rotate(110.149) scale(159.894 107.29)">
<stop offset="0.968227" stop-color="#BF7B8A" stop-opacity="0"/>
<stop offset="1" stop-color="#BF7B8A"/>
</radialGradient>
<linearGradient id="paint4_linear_18_477" x1="165.12" y1="120.843" x2="168.953" y2="124.579" gradientUnits="userSpaceOnUse">
<stop stop-color="#DE9B80"/>
<stop offset="1" stop-color="#DE9B80" stop-opacity="0"/>
</linearGradient>
<radialGradient id="paint5_radial_18_477" cx="0" cy="0" r="1" gradientUnits="userSpaceOnUse" gradientTransform="translate(182.636 140.834) rotate(-141.741) scale(10.7679 28.2163)">
<stop stop-color="#DDA391"/>
<stop offset="1" stop-color="#DDA391" stop-opacity="0"/>
</radialGradient>
<linearGradient id="paint6_linear_18_477" x1="149.482" y1="136.733" x2="160.801" y2="135.715" gradientUnits="userSpaceOnUse">
<stop stop-color="#FCC5B2"/>
<stop offset="1" stop-color="#FCC5B2" stop-opacity="0"/>
</linearGradient>
<radialGradient id="paint7_radial_18_477" cx="0" cy="0" r="1" gradientUnits="userSpaceOnUse" gradientTransform="translate(197.627 113.867) rotate(161.82) scale(19.4546 21.9463)">
<stop stop-color="#DBAB90"/>
<stop offset="1" stop-color="#DBAB90" stop-opacity="0"/>
</radialGradient>
<linearGradient id="paint8_linear_18_477" x1="146.067" y1="96.977" x2="152.158" y2="101.053" gradientUnits="userSpaceOnUse">
<stop stop-color="#D6987D"/>
<stop offset="1" stop-color="#D6987D" stop-opacity="0"/>
</linearGradient>
<linearGradient id="paint9_linear_18_477" x1="171.155" y1="116.426" x2="159.863" y2="107.607" gradientUnits="userSpaceOnUse">
<stop stop-color="#DC977A"/>
<stop offset="1" stop-color="#DC977A" stop-opacity="0"/>
</linearGradient>
<radialGradient id="paint10_radial_18_477" cx="0" cy="0" r="1" gradientUnits="userSpaceOnUse" gradientTransform="translate(162.796 128.135) rotate(-142.147) scale(5.03157 42.8167)">
<stop stop-color="#CA8363"/>
<stop offset="1" stop-color="#CA8363" stop-opacity="0"/>
</radialGradient>
<linearGradient id="paint11_linear_18_477" x1="135.209" y1="124.206" x2="146.43" y2="109.421" gradientUnits="userSpaceOnUse">
<stop offset="0.289739" stop-color="#FCC5B2"/>
<stop offset="1" stop-color="#FCC5B2" stop-opacity="0"/>
</linearGradient>
<radialGradient id="paint12_radial_18_477" cx="0" cy="0" r="1" gradientUnits="userSpaceOnUse" gradientTransform="translate(186.26 83.1966) rotate(151.238) scale(14.914 18.3296)">
<stop stop-color="#DAB7A2"/>
<stop offset="1" stop-color="#DAB7A2" stop-opacity="0"/>
</radialGradient>
<linearGradient id="paint13_linear_18_477" x1="151.609" y1="93.5406" x2="141.024" y2="88.6724" gradientUnits="userSpaceOnUse">
<stop stop-color="#DE9C81"/>
<stop offset="1" stop-color="#DE9C81" stop-opacity="0"/>
</linearGradient>
<linearGradient id="paint14_linear_18_477" x1="119.98" y1="90.9271" x2="125.397" y2="93.0517" gradientUnits="userSpaceOnUse">
<stop stop-color="#D7987E"/>
<stop offset="1" stop-color="#D7987E" stop-opacity="0"/>
</linearGradient>
<radialGradient id="paint15_radial_18_477" cx="0" cy="0" r="1" gradientUnits="userSpaceOnUse" gradientTransform="translate(118.83 96.0031) rotate(19.5922) scale(4.28138 25.0933)">
<stop stop-color="#C2846B"/>
<stop offset="1" stop-color="#C2846B" stop-opacity="0"/>
</radialGradient>
<radialGradient id="paint16_radial_18_477" cx="0" cy="0" r="1" gradientUnits="userSpaceOnUse" gradientTransform="translate(147.57 114.031) rotate(-153.879) scale(10.242 45.0783)">
<stop offset="0.215675" stop-color="#D18C6E"/>
<stop offset="1" stop-color="#D18C6E" stop-opacity="0"/>
</radialGradient>
<radialGradient id="paint17_radial_18_477" cx="0" cy="0" r="1" gradientUnits="userSpaceOnUse" gradientTransform="translate(162.73 52.7868) rotate(136.247) scale(17.6792 26.6525)">
<stop stop-color="#DAAD92"/>
<stop offset="1" stop-color="#D8AA90" stop-opacity="0"/>
</radialGradient>
<linearGradient id="paint18_linear_18_477" x1="126.944" y1="117.021" x2="134.361" y2="100.901" gradientUnits="userSpaceOnUse">
<stop stop-color="#FCC5B2"/>
<stop offset="1" stop-color="#EBB197" stop-opacity="0"/>
<stop offset="1" stop-color="#FCC5B2" stop-opacity="0"/>
</linearGradient>
<linearGradient id="paint19_linear_18_477" x1="145.557" y1="40.6409" x2="126.693" y2="85.1359" gradientUnits="userSpaceOnUse">
<stop stop-color="#FFE2C7"/>
<stop offset="1" stop-color="#FFE2C7" stop-opacity="0"/>
</linearGradient>
<linearGradient id="paint20_linear_18_477" x1="124.12" y1="84.08" x2="109.888" y2="80.7347" gradientUnits="userSpaceOnUse">
<stop stop-color="#DF9E80"/>
<stop offset="1" stop-color="#DF9E80" stop-opacity="0"/>
</linearGradient>
<linearGradient id="paint21_linear_18_477" x1="108.367" y1="114.005" x2="112.802" y2="92.5773" gradientUnits="userSpaceOnUse">
<stop stop-color="#FCC5B3"/>
<stop offset="1" stop-color="#FCC5B3" stop-opacity="0"/>
</linearGradient>
<radialGradient id="paint22_radial_18_477" cx="0" cy="0" r="1" gradientUnits="userSpaceOnUse" gradientTransform="translate(89.8742 104.392) rotate(4.68179) scale(6.08892 16.7268)">
<stop offset="0.218324" stop-color="#ECB192"/>
<stop offset="1" stop-color="#ECB192" stop-opacity="0"/>
</radialGradient>
<linearGradient id="paint23_linear_18_477" x1="96.1925" y1="97.9177" x2="113.674" y2="26.045" gradientUnits="userSpaceOnUse">
<stop stop-color="#FFDCC3"/>
<stop offset="1" stop-color="#FFDCC3" stop-opacity="0"/>
</linearGradient>
<linearGradient id="paint24_linear_18_477" x1="64.5323" y1="84.0049" x2="50.7536" y2="113.336" gradientUnits="userSpaceOnUse">
<stop stop-color="#FFE1C6"/>
<stop offset="1" stop-color="#FFE1C6" stop-opacity="0"/>
</linearGradient>
<radialGradient id="paint25_radial_18_477" cx="0" cy="0" r="1" gradientUnits="userSpaceOnUse" gradientTransform="translate(54.1365 66.4759) rotate(62.692) scale(33.0834 9.99862)">
<stop stop-color="#FFD5BC"/>
<stop offset="1" stop-color="#FFD5BC" stop-opacity="0"/>
</radialGradient>
<radialGradient id="paint26_radial_18_477" cx="0" cy="0" r="1" gradientUnits="userSpaceOnUse" gradientTransform="translate(109.132 49.7627) rotate(-119.826) scale(10.3348 10.2196)">
<stop stop-color="#FFD5BC"/>
<stop offset="1" stop-color="#FFD5BC" stop-opacity="0"/>
</radialGradient>
<radialGradient id="paint27_radial_18_477" cx="0" cy="0" r="1" gradientUnits="userSpaceOnUse" gradientTransform="translate(144.879 55.1665) rotate(-108.394) scale(12.6436 10.9059)">
<stop stop-color="#FFD5BC"/>
<stop offset="1" stop-color="#FFD5BC" stop-opacity="0"/>
</radialGradient>
<radialGradient id="paint28_radial_18_477" cx="0" cy="0" r="1" gradientUnits="userSpaceOnUse" gradientTransform="translate(170.915 82.7942) rotate(-100.486) scale(11.2009 9.15193)">
<stop stop-color="#FFD5BC"/>
<stop offset="1" stop-color="#FFD5BC" stop-opacity="0"/>
</radialGradient>
<radialGradient id="paint29_radial_18_477" cx="0" cy="0" r="1" gradientUnits="userSpaceOnUse" gradientTransform="translate(182.999 112.563) rotate(-88.9797) scale(7.71939 8.39471)">
<stop stop-color="#FFD5BC"/>
<stop offset="1" stop-color="#FFD5BC" stop-opacity="0"/>
</radialGradient>
<linearGradient id="paint30_linear_18_477" x1="152.497" y1="140.786" x2="158.571" y2="149.463" gradientUnits="userSpaceOnUse">
<stop stop-color="#FFD5BF"/>
<stop offset="1" stop-color="#FFD5BF" stop-opacity="0"/>
</linearGradient>
<linearGradient id="paint31_linear_18_477" x1="139.828" y1="120.299" x2="148.512" y2="126.364" gradientUnits="userSpaceOnUse">
<stop stop-color="#FFD5BF"/>
<stop offset="1" stop-color="#FFD5BF" stop-opacity="0"/>
</linearGradient>
<linearGradient id="paint32_linear_18_477" x1="121.61" y1="112.394" x2="132.147" y2="112.44" gradientUnits="userSpaceOnUse">
<stop stop-color="#FFD5BF"/>
<stop offset="1" stop-color="#FFD5BF" stop-opacity="0"/>
</linearGradient>
<linearGradient id="paint33_linear_18_477" x1="95.4552" y1="113.349" x2="105.992" y2="113.395" gradientUnits="userSpaceOnUse">
<stop stop-color="#FFD5BF"/>
<stop offset="1" stop-color="#FFD5BF" stop-opacity="0"/>
</linearGradient>
<clipPath id="clip0_18_477">
<rect width="176" height="176" fill="white" transform="matrix(-0.866025 -0.5 -0.5 0.866025 241 88)"/>
</clipPath>
</defs>
</svg>
